<svg viewBox="0 0 96 96" xmlns="http://www.w3.org/2000/svg" xmlns:xlink="http://www.w3.org/1999/xlink" id="Icons_ForkInRoad1_M" overflow="hidden"><g id="Icons"><path d="M74 24C61.8916 24.017 51.2703 32.0806 48 43.739 44.7297 32.0806 34.1084 24.017 22 24L11.438 24C11.4325 23.9999 11.4281 23.9954 11.4281 23.9899 11.4282 23.9873 11.4292 23.9848 11.431 23.983L24.707 10.707C25.0907 10.3097 25.0797 9.67668 24.6824 9.293 24.2949 8.91872 23.6805 8.91872 23.293 9.293L8.293 24.293C7.90198 24.683 7.90118 25.3162 8.29121 25.7072 8.29181 25.7078 8.2924 25.7084 8.293 25.709L23.293 40.709C23.6903 41.0927 24.3233 41.0817 24.707 40.6844 25.0813 40.2969 25.0813 39.6825 24.707 39.295L11.431 26.017C11.4271 26.0131 11.4272 26.0067 11.4311 26.0029 11.433 26.0011 11.4354 26 11.438 26L22 26C35.8007 26.0154 46.9846 37.1993 47 51L47 86C47 86.5523 47.4477 87 48 87 48.5523 87 49 86.5523 49 86L49 51C49.0154 37.1993 60.1993 26.0154 74 26L84.562 26C84.5675 26.0001 84.5719 26.0046 84.5719 26.0101 84.5718 26.0127 84.5708 26.0152 84.569 26.017L71.293 39.293C70.8957 39.6767 70.8847 40.3097 71.2684 40.707 71.6521 41.1043 72.2852 41.1153 72.6824 40.7316 72.6908 40.7235 72.699 40.7153 72.707 40.707L87.707 25.707C88.098 25.317 88.0988 24.6838 87.7088 24.2928 87.7082 24.2922 87.7076 24.2916 87.707 24.291L72.707 9.291C72.3097 8.90732 71.6767 8.91832 71.293 9.31558 70.9187 9.7031 70.9187 10.3175 71.293 10.705L84.569 23.983C84.5729 23.9869 84.5728 23.9933 84.5689 23.9971 84.567 23.9989 84.5646 24 84.562 24Z"/></g></svg>